<svg width="27" height="26" viewBox="0 0 27 26" fill="none" xmlns="http://www.w3.org/2000/svg">
<path id="Vector" fill-rule="evenodd" clip-rule="evenodd" d="M26.9413 11.7603L24.7543 10.6703C24.7543 10.6703 25.3402 9.34695 25.87 8.20094C24.0028 7.45172 22.0865 6.93824 19.0593 7.96754C18.6729 8.10203 18.3057 8.28641 17.967 8.51603C18.068 8.16636 18.139 7.80876 18.1794 7.44706C18.6462 3.15712 15.9294 0.788086 15.9294 0.788086L14.2559 2.56661C14.2559 2.56661 13.1566 1.633 12.2136 0.788086C10.9579 2.35888 9.90995 4.05572 10.015 7.23933C10.042 7.78589 10.1554 8.32472 10.3511 8.83579C10.1457 8.69808 9.93096 8.56506 9.70456 8.44135C5.91177 6.38041 2.23569 8.14025 2.23569 8.14025L3.50306 10.3249C3.50306 10.3249 1.99528 11.1161 0.863281 11.6716C1.84124 13.4291 3.4167 14.8062 6.41125 15.9196C6.76431 16.0507 7.13469 16.1293 7.51057 16.153C7.27717 16.3864 7.04377 16.6198 6.81037 16.8952C4.00954 20.1838 5.17655 23.6172 5.17655 23.6172L7.55259 23.05C7.55259 23.05 7.95404 24.4504 8.2808 25.6571C10.1924 25.0362 12.2883 24.7235 13.8591 21.9226C13.9888 21.6921 14.1019 21.4527 14.1975 21.2061C14.2941 21.3974 14.4016 21.5828 14.5196 21.7616C16.9214 25.356 20.5274 25.4144 20.5274 25.4144L20.6698 22.973C20.6698 22.973 22.1169 22.9916 23.3773 23.0267C23.3306 21.0194 23.0505 19.0588 20.9219 16.6711C20.6777 16.4028 20.408 16.1589 20.1166 15.9429C20.4846 15.9369 20.8515 15.901 21.2136 15.8355C25.4592 15.049 26.9413 11.7603 26.9413 11.7603ZM17.9857 14.7946C17.9037 14.794 17.8243 14.7658 17.7604 14.7146C17.6964 14.6633 17.6516 14.592 17.6332 14.5121L15.6493 14.3698C15.6306 14.4639 15.6033 14.5561 15.5676 14.6452L17.0404 15.3897C17.0942 15.3411 17.1639 15.3137 17.2364 15.3127C17.3151 15.3127 17.3905 15.3439 17.446 15.3995C17.5016 15.4551 17.5329 15.5305 17.5329 15.6091C17.5329 15.6877 17.5016 15.7631 17.446 15.8187C17.3905 15.8743 17.3151 15.9056 17.2364 15.9056C17.1578 15.9056 17.0824 15.8743 17.0268 15.8187C16.9713 15.7631 16.94 15.6877 16.94 15.6091C16.94 15.6091 16.94 15.5928 16.94 15.5835L15.4696 14.8389C15.3863 14.9849 15.279 15.1159 15.1522 15.2263L16.0087 16.5684C16.0263 16.5629 16.0442 16.559 16.0624 16.5567C16.141 16.5567 16.2164 16.588 16.272 16.6436C16.3276 16.6992 16.3589 16.7745 16.3589 16.8532C16.3592 16.8923 16.3517 16.9311 16.337 16.9673C16.3222 17.0035 16.3004 17.0365 16.2729 17.0643C16.2453 17.092 16.2125 17.1141 16.1764 17.1291C16.1403 17.1442 16.1016 17.1519 16.0624 17.1519C16.0233 17.1519 15.9846 17.1442 15.9485 17.1291C15.9123 17.1141 15.8796 17.092 15.852 17.0643C15.8244 17.0365 15.8027 17.0035 15.7879 16.9673C15.7731 16.9311 15.7657 16.8923 15.766 16.8532C15.7669 16.7923 15.7873 16.7334 15.8244 16.6851C15.5443 16.2416 15.2626 15.7997 14.9794 15.3594C14.8734 15.4275 14.7598 15.4831 14.641 15.5251L15.2852 17.3923C15.3564 17.3959 15.4235 17.4268 15.4726 17.4785C15.5217 17.5302 15.549 17.5988 15.5489 17.6701C15.5483 17.7446 15.5183 17.8158 15.4654 17.8683C15.4125 17.9207 15.341 17.9502 15.2665 17.9502C15.2298 17.9502 15.1933 17.9429 15.1593 17.9288C15.1254 17.9148 15.0945 17.8941 15.0685 17.8681C15.0425 17.8421 15.0218 17.8112 15.0078 17.7773C14.9937 17.7433 14.9864 17.7069 14.9864 17.6701C14.9864 17.6306 14.995 17.5916 15.0115 17.5557C15.028 17.5198 15.0521 17.488 15.0821 17.4623L14.431 15.5718C14.3356 15.5907 14.2387 15.6001 14.1415 15.5998H14.0995V17.7494C14.153 17.7704 14.199 17.8071 14.2314 17.8545C14.2639 17.9019 14.2814 17.958 14.2816 18.0155C14.2819 18.0536 14.2746 18.0914 14.2602 18.1266C14.2457 18.1619 14.2244 18.1939 14.1975 18.2209C14.1706 18.2478 14.1385 18.2691 14.1033 18.2835C14.068 18.298 14.0302 18.3052 13.9922 18.3049C13.9154 18.3049 13.8418 18.2744 13.7875 18.2202C13.7332 18.1659 13.7027 18.0923 13.7027 18.0155C13.703 17.958 13.7204 17.9019 13.7529 17.8545C13.7853 17.8071 13.8313 17.7704 13.8848 17.7494V15.5788C13.7143 15.5507 13.55 15.493 13.3993 15.4084C12.9434 15.9063 12.489 16.4027 12.0362 16.8975C12.065 16.9456 12.081 17.0002 12.0829 17.0562C12.0829 17.1009 12.0741 17.1451 12.0569 17.1863C12.0398 17.2275 12.0147 17.2649 11.983 17.2964C11.9513 17.3278 11.9137 17.3527 11.8724 17.3696C11.8311 17.3864 11.7868 17.395 11.7422 17.3947C11.6977 17.3947 11.6537 17.3859 11.6126 17.3689C11.5716 17.3519 11.5343 17.327 11.5028 17.2955C11.4714 17.2641 11.4465 17.2268 11.4295 17.1857C11.4125 17.1447 11.4037 17.1007 11.4037 17.0562C11.4037 16.9665 11.4394 16.8804 11.5028 16.8169C11.5663 16.7534 11.6524 16.7178 11.7422 16.7178C11.7897 16.7181 11.8366 16.7285 11.8799 16.7481L13.2173 15.2894C13.117 15.2124 13.0261 15.1239 12.9465 15.0256L11.1773 15.8775C11.1773 15.8915 11.1773 15.9032 11.1773 15.9172C11.1773 16.0076 11.1414 16.0943 11.0775 16.1582C11.0136 16.2221 10.9269 16.258 10.8366 16.258C10.7462 16.258 10.6595 16.2221 10.5956 16.1582C10.5317 16.0943 10.4958 16.0076 10.4958 15.9172C10.4958 15.8725 10.5046 15.8282 10.5217 15.7868C10.5389 15.7455 10.564 15.7079 10.5956 15.6763C10.6272 15.6446 10.6648 15.6195 10.7062 15.6024C10.7475 15.5853 10.7918 15.5764 10.8366 15.5764C10.8824 15.5764 10.9277 15.5858 10.9699 15.6038C11.012 15.6219 11.05 15.6483 11.0816 15.6815L12.8158 14.8459C12.7404 14.7144 12.6838 14.573 12.6478 14.4258L10.2274 14.3534C10.2051 14.4042 10.1685 14.4473 10.1221 14.4776C10.0757 14.5079 10.0214 14.5239 9.96597 14.5238C9.89045 14.5238 9.81802 14.4938 9.76462 14.4404C9.71122 14.387 9.68122 14.3146 9.68122 14.2391C9.68122 14.1635 9.71122 14.0911 9.76462 14.0377C9.81802 13.9843 9.89045 13.9543 9.96597 13.9543C10.0238 13.9544 10.0802 13.9721 10.1278 14.005C10.1753 14.0379 10.2117 14.0846 10.232 14.1387L12.6127 14.2087C12.6104 14.1636 12.6104 14.1184 12.6127 14.0733C12.6126 13.9296 12.6331 13.7865 12.6734 13.6486L10.2857 12.5376C10.2475 12.5834 10.1997 12.6204 10.1457 12.6458C10.0916 12.6712 10.0327 12.6844 9.97297 12.6846C9.91913 12.6846 9.86583 12.674 9.81612 12.6533C9.76641 12.6326 9.72128 12.6023 9.68332 12.5641C9.64536 12.526 9.61532 12.4807 9.59494 12.4308C9.57455 12.381 9.56421 12.3276 9.56451 12.2738C9.56421 12.22 9.57455 12.1666 9.59494 12.1168C9.61532 12.067 9.64536 12.0217 9.68332 11.9835C9.72128 11.9453 9.76641 11.915 9.81612 11.8943C9.86583 11.8737 9.91913 11.863 9.97297 11.863C10.0819 11.863 10.1864 11.9063 10.2634 11.9833C10.3405 12.0604 10.3838 12.1649 10.3838 12.2738C10.3861 12.2971 10.3861 12.3205 10.3838 12.3438L12.7551 13.4455C12.8435 13.2508 12.9715 13.0768 13.1309 12.9343L11.3057 11.0134C11.2272 11.0598 11.1378 11.0848 11.0466 11.0858C10.9781 11.0861 10.9101 11.0729 10.8467 11.0468C10.7833 11.0208 10.7256 10.9825 10.6771 10.9342C10.6285 10.8858 10.5899 10.8283 10.5636 10.765C10.5373 10.7017 10.5238 10.6339 10.5238 10.5653C10.5238 10.4266 10.5789 10.2937 10.6769 10.1956C10.775 10.0976 10.908 10.0425 11.0466 10.0425C11.1152 10.0425 11.183 10.056 11.2463 10.0823C11.3096 10.1086 11.3671 10.1472 11.4155 10.1958C11.4639 10.2443 11.5021 10.302 11.5282 10.3654C11.5542 10.4288 11.5674 10.4968 11.5671 10.5653C11.5668 10.6745 11.5316 10.7808 11.4667 10.8687L13.3013 12.8013C13.504 12.6644 13.7372 12.5794 13.9805 12.5539C13.9992 11.877 14.0155 11.2002 14.0342 10.5256C13.9386 10.5 13.8541 10.4436 13.7937 10.3651C13.7334 10.2866 13.7006 10.1905 13.7004 10.0915C13.7004 9.97243 13.7475 9.85821 13.8315 9.7738C13.9155 9.68939 14.0295 9.64165 14.1485 9.64103C14.268 9.64103 14.3826 9.68849 14.4671 9.77297C14.5515 9.85745 14.599 9.97202 14.599 10.0915C14.5989 10.1935 14.5642 10.2924 14.5007 10.3721C14.4371 10.4518 14.3483 10.5076 14.2489 10.5303C14.2326 11.2025 14.2139 11.8747 14.1975 12.5469C14.4228 12.5528 14.6438 12.6095 14.8441 12.7126L15.682 11.2959C15.6236 11.2319 15.5904 11.149 15.5886 11.0625C15.5886 10.9671 15.6265 10.8757 15.6939 10.8083C15.7613 10.7409 15.8527 10.703 15.9481 10.703C16.0434 10.703 16.1348 10.7409 16.2022 10.8083C16.2696 10.8757 16.3075 10.9671 16.3075 11.0625C16.3078 11.1099 16.2987 11.1568 16.2808 11.2007C16.2629 11.2446 16.2365 11.2845 16.2031 11.3181C16.1696 11.3517 16.1299 11.3784 16.0862 11.3966C16.0424 11.4149 15.9955 11.4242 15.9481 11.4242C15.9219 11.4213 15.8961 11.4158 15.871 11.4079C15.591 11.8747 15.3101 12.3485 15.0285 12.8293C15.1679 12.9276 15.2902 13.0482 15.3902 13.1864L16.863 11.8187C16.8312 11.759 16.8144 11.6925 16.814 11.6249C16.8137 11.5697 16.8243 11.5149 16.8453 11.4638C16.8663 11.4127 16.8973 11.3663 16.9363 11.3272C16.9754 11.2881 17.0219 11.2572 17.073 11.2362C17.1241 11.2152 17.1789 11.2045 17.2341 11.2048C17.3455 11.2048 17.4524 11.2491 17.5312 11.3279C17.61 11.4067 17.6542 11.5135 17.6542 11.6249C17.6536 11.7362 17.6092 11.8427 17.5305 11.9213C17.4519 12 17.3453 12.0445 17.2341 12.0451C17.1513 12.0463 17.07 12.0227 17.0007 11.9774L15.4953 13.3638C15.5543 13.4774 15.5982 13.5982 15.626 13.7232L17.6286 13.4268C17.6408 13.3431 17.6826 13.2665 17.7464 13.2108C17.8101 13.1552 17.8917 13.1242 17.9763 13.1234C18.0717 13.1234 18.1631 13.1613 18.2305 13.2287C18.2979 13.2961 18.3358 13.3875 18.3358 13.4828C18.3358 13.5782 18.2979 13.6696 18.2305 13.737C18.1631 13.8044 18.0717 13.8423 17.9763 13.8423C17.909 13.842 17.8431 13.8228 17.7862 13.7869C17.7292 13.751 17.6835 13.6998 17.6542 13.6392L15.661 13.9333C15.661 13.9776 15.661 14.022 15.661 14.0687C15.661 14.1154 15.661 14.1177 15.661 14.1434L17.6286 14.2857C17.6559 14.2165 17.7035 14.1572 17.7651 14.1155C17.8268 14.0739 17.8996 14.0519 17.974 14.0523C18.0724 14.0523 18.1668 14.0914 18.2364 14.161C18.306 14.2306 18.3451 14.325 18.3451 14.4234C18.3439 14.5191 18.3059 14.6106 18.239 14.6788C18.172 14.7471 18.0813 14.7869 17.9857 14.7899V14.7946Z" fill="white" fill-opacity="0.5"/>
</svg>
