<svg width="21" height="20" viewBox="0 0 21 20" fill="none" xmlns="http://www.w3.org/2000/svg">
<g id="Calendar / Calendar">
<path id="Vector" d="M3.41162 6.6665H16.745M3.41162 6.6665V14C3.41162 14.9334 3.41162 15.3999 3.59328 15.7564C3.75307 16.07 4.00785 16.3252 4.32145 16.485C4.67762 16.6665 5.14412 16.6665 6.07571 16.6665H14.0809C15.0125 16.6665 15.4783 16.6665 15.8344 16.485C16.1481 16.3252 16.4037 16.07 16.5635 15.7564C16.745 15.4002 16.745 14.9344 16.745 14.0028V6.6665M3.41162 6.6665V6C3.41162 5.06658 3.41162 4.59952 3.59328 4.243C3.75307 3.9294 4.00785 3.67462 4.32145 3.51483C4.67797 3.33317 5.14503 3.33317 6.07845 3.33317H6.74495M16.745 6.6665V5.99726C16.745 5.06567 16.745 4.59917 16.5635 4.243C16.4037 3.9294 16.1481 3.67462 15.8344 3.51483C15.4779 3.33317 15.0119 3.33317 14.0785 3.33317H13.4116M13.4116 1.6665V3.33317M13.4116 3.33317H6.74495M6.74495 1.6665V3.33317" stroke="#A9A9A9" stroke-width="1.66667" stroke-linecap="round" stroke-linejoin="round"/>
</g>
</svg>
