<svg width="69" height="64" viewBox="0 0 69 64" fill="none" xmlns="http://www.w3.org/2000/svg">
<g opacity="0.1" filter="url(#filter0_d_2012_34947)">
<path d="M69.7235 20.0101C71.9702 20.0724 73.7938 20.9941 75.2501 22.7564C76.1339 23.8213 77.0488 24.9048 78.1192 25.7642C80.59 27.7569 83.1542 27.8192 85.8553 26.1814C87.6041 25.1165 89.409 25.0979 91.1329 26.2188C92.8569 27.3459 93.5913 29.0335 93.2614 31.045C92.9254 33.0813 91.6931 34.4762 89.6579 34.9744C87.7348 35.4477 85.9797 34.9744 84.7661 33.3989C82.7061 30.7087 79.5133 29.8057 76.0405 31.4373C73.8871 32.4461 72.0325 33.8535 70.7193 35.8649C69.1136 38.3309 68.958 40.8468 70.5512 43.4249C72.2441 46.1711 71.0118 49.6273 68.0369 50.6299C65.7777 51.3959 63.3691 50.4742 62.1991 48.4067C61.0477 46.3642 61.5082 43.7487 63.3691 42.2791C65.0246 40.9651 66.0017 39.3273 66.0889 37.1976C66.1449 35.8026 65.8026 34.4824 65.1802 33.2494C64.813 32.5208 64.3774 31.8171 63.9168 31.1446C60.9294 26.773 63.3069 21.0252 68.5161 20.0849C68.902 20.0164 69.3065 20.0288 69.7359 20.0039L69.7235 20.0101Z" fill="#D9524D"/>
<path d="M20.3883 -9.90178C20.3448 -13.3891 19.0129 -15.7492 15.8824 -17.0009C13.5734 -17.9288 12.4158 -20.3948 13.0568 -22.7488C13.6667 -24.9906 15.9135 -26.5848 18.1042 -26.3357C20.7182 -26.0368 22.5915 -24.1001 22.6164 -21.5407C22.6226 -20.7872 22.3488 -20.0336 22.2367 -19.2739C21.8135 -16.3408 23.0334 -14.1239 25.4108 -12.5422C26.3879 -11.8883 27.5082 -11.415 28.6222 -11.0165C31.7341 -9.90801 33.6385 -7.14931 33.4705 -3.84259C33.3149 -0.704021 31.0681 1.899 27.8941 2.59646C26.6058 2.88292 25.3299 2.75837 24.0727 2.35982C22.3239 1.80559 20.5377 1.55027 18.7079 1.91146C16.4052 2.35982 14.8306 3.67379 13.9779 5.88449C12.9386 8.58092 10.2188 9.8077 7.61112 8.81756C5.27724 7.92705 4.01383 5.34271 4.72333 2.9016C5.41416 0.535213 7.8974 -1.17107 10.2064 -0.473612C14.9986 0.977354 18.1602 -2.02421 19.4734 -5.71079C19.7411 -6.45807 19.9776 -7.21781 20.1394 -7.99C20.2887 -8.68746 20.3199 -9.41605 20.3821 -9.89556L20.3883 -9.90178Z" fill="#D9524D"/>
<path d="M43.9135 27.2137C43.9135 28.7207 43.4405 30.0471 42.5879 31.2615C41.5237 32.7809 40.671 34.3938 40.4221 36.2745C40.1109 38.6408 40.8453 40.5838 42.7124 42.0783C44.3679 43.4047 45.0214 45.1173 44.5235 47.1723C44.0505 49.1401 42.7435 50.3794 40.7581 50.7592C38.6794 51.1515 36.9493 50.4479 35.7792 48.6855C34.6465 46.9792 34.6092 45.1484 35.7232 43.4172C36.9493 41.5116 37.3974 39.4878 36.5136 37.4016C36.0282 36.2433 35.244 35.1349 34.354 34.2381C32.5242 32.3886 30.3459 31.0622 27.676 30.7508C25.2674 30.4644 23.2945 31.2677 21.7261 33.1234C20.2076 34.9293 18.1413 35.5023 16.1124 34.7176C13.4424 33.6839 12.2226 30.6449 13.4487 28.0668C14.6498 25.5385 17.8675 24.4052 20.2138 25.9745C24.0725 28.5526 27.9623 26.9397 30.3708 24.0066C30.987 23.2593 31.5409 22.4311 32.2691 21.8146C34.5282 19.9215 37.1048 19.5292 39.7872 20.7497C42.5194 21.989 43.8077 24.2495 43.8949 27.2137H43.9135Z" fill="#D9524D"/>
<path d="M26.487 20.0068C22.5972 20.0068 19.4293 16.8371 19.4356 12.9388C19.4356 9.06536 22.6594 5.87074 26.5305 5.89565C30.3768 5.92056 33.526 9.08404 33.5446 12.945C33.5633 16.8246 30.383 20.0068 26.487 20.0068Z" fill="#D9524D"/>
<path d="M46.1605 32.3332C46.1605 28.4784 49.3097 25.3399 53.1808 25.3087C57.0333 25.2838 60.2696 28.5096 60.2634 32.3705C60.2634 36.2501 57.0706 39.4199 53.1746 39.4199C49.2786 39.4199 46.1481 36.2564 46.1543 32.3332H46.1605Z" fill="#D9524D"/>
<path d="M30.7508 41.924C30.7508 44.6951 28.6098 46.8747 25.8776 46.8872C23.0832 46.8996 20.9111 44.7325 20.9111 41.9427C20.9111 39.1777 23.0583 37.0293 25.8278 37.0293C28.6036 37.0293 30.7508 39.159 30.757 41.9302L30.7508 41.924Z" fill="#D9524D"/>
<path d="M9.01141 13.7259C11.7872 13.7882 13.9094 16.0114 13.8659 18.8074C13.8161 21.5226 11.5195 23.6585 8.72512 23.5963C6.03649 23.534 3.93911 21.261 4.00135 18.4774C4.06359 15.7872 6.30411 13.6637 9.01141 13.7259Z" fill="#D9524D"/>
<path d="M58.1161 50.8693C58.1099 53.6031 55.9005 55.8138 53.1932 55.8013C50.4859 55.7889 48.2578 53.5532 48.2578 50.8444C48.2578 48.1043 50.5295 45.85 53.2554 45.8812C55.9876 45.9123 58.1286 48.1043 58.1223 50.8693H58.1161Z" fill="#D9524D"/>
</g>
<defs>
<filter id="filter0_d_2012_34947" x="0" y="-47.1982" width="106.43" height="111" filterUnits="userSpaceOnUse" color-interpolation-filters="sRGB">
<feFlood flood-opacity="0" result="BackgroundImageFix"/>
<feColorMatrix in="SourceAlpha" type="matrix" values="0 0 0 0 0 0 0 0 0 0 0 0 0 0 0 0 0 0 127 0" result="hardAlpha"/>
<feOffset dy="4"/>
<feGaussianBlur stdDeviation="2"/>
<feComposite in2="hardAlpha" operator="out"/>
<feColorMatrix type="matrix" values="0 0 0 0 0 0 0 0 0 0 0 0 0 0 0 0 0 0 0.25 0"/>
<feBlend mode="normal" in2="BackgroundImageFix" result="effect1_dropShadow_2012_34947"/>
<feBlend mode="normal" in="SourceGraphic" in2="effect1_dropShadow_2012_34947" result="shape"/>
</filter>
</defs>
</svg>
