<svg width="25" height="25" viewBox="0 0 25 25" fill="none" xmlns="http://www.w3.org/2000/svg">
<path d="M13.4555 10.082L14.8045 10.3206C14.6904 10.7457 14.5837 11.1925 14.4501 11.633C14.1192 12.723 13.605 13.7045 12.7313 14.468C12.1955 14.9409 11.5385 15.2553 10.834 15.3759C10.4031 15.4518 10.3672 15.49 10.3655 15.926C10.3655 16.6107 10.3598 17.2955 10.3655 17.9803C10.3712 19.2619 11.097 20.3039 12.3148 20.7C13.5325 21.096 14.7292 21.0538 15.8527 20.3678C16.735 19.8292 17.1761 19.0314 17.1926 18.006C17.2086 17.0359 17.1995 16.0658 17.2063 15.0957C17.2063 14.8783 17.1133 14.7408 16.921 14.6495C16.3279 14.3759 15.866 13.8804 15.6348 13.2696C15.0835 11.8898 16.1112 10.3725 17.4037 10.102C18.3219 9.91028 19.4963 10.4182 19.9305 11.2073C20.4921 12.2271 20.3808 13.333 19.6144 14.0954C19.4052 14.3003 19.167 14.4734 18.9074 14.6089C18.6723 14.7328 18.5621 14.8988 18.5599 15.1459C18.5547 15.8472 18.5599 16.5491 18.5542 17.2504C18.549 17.7132 18.5884 18.188 18.5028 18.6365C18.1353 20.551 16.905 21.6815 15.071 22.1408C13.9006 22.4336 12.6988 22.3919 11.5798 21.8772C9.94149 21.1234 9.06157 19.8229 8.9851 18.0117C8.95486 17.2904 8.97198 16.5668 8.9851 15.8432C8.9891 15.591 8.89493 15.4398 8.64899 15.3981C6.80924 15.086 5.75413 13.8791 5.11102 12.2413C4.88276 11.6621 4.76007 11.043 4.58489 10.4415C4.54551 10.3074 4.56035 10.2207 4.71557 10.1922C5.0414 10.1317 5.36495 10.0489 5.69307 10.0159C5.76383 10.009 5.89051 10.1585 5.92589 10.2589C6.15415 10.9112 6.30936 11.5942 6.59125 12.2214C7.1539 13.4739 8.13998 14.1233 9.54205 14.0959C10.1053 14.0851 10.6611 14.0623 11.1918 13.8437C11.9907 13.5139 12.4877 12.885 12.8027 12.1209C13.0429 11.5372 13.1953 10.9169 13.387 10.3137C13.4047 10.2355 13.4315 10.1557 13.4555 10.082ZM17.8916 13.4762C18.4971 13.4802 18.892 13.091 18.8943 12.4884C18.8965 11.8858 18.4948 11.4487 17.9316 11.4402C17.2965 11.4305 16.8782 11.8396 16.8753 12.4776C16.8719 13.1013 17.2485 13.4717 17.8916 13.4762Z" fill="#134A9B"/>
<path d="M10.5263 4.28838C10.5263 4.11718 10.5348 3.94599 10.5263 3.7748C10.5126 3.54654 10.617 3.47065 10.8333 3.47807C11.1374 3.48834 11.4416 3.47807 11.7463 3.48263C11.9517 3.48263 12.172 3.4153 12.265 3.72915C12.2901 3.8136 12.5612 3.8507 12.7215 3.86439C13.2659 3.91061 13.7977 3.98993 14.2622 4.30207C14.9664 4.77342 15.2922 5.45591 15.2027 6.27706C15.0919 7.29394 14.8899 8.29998 14.7421 9.31287C14.7005 9.59819 14.5607 9.65867 14.3124 9.59819C14.2303 9.57821 14.1453 9.56851 14.0619 9.55139C13.9022 9.5183 13.8194 9.4521 13.8531 9.25694C14.0111 8.34392 14.1475 7.42119 14.3045 6.50475C14.4797 5.48501 14.0499 4.89383 13.0256 4.76886C12.8847 4.75174 12.7403 4.74261 12.6017 4.72948C12.3911 4.70894 12.2262 4.73975 12.1891 5.00168C12.1805 5.05874 12.0653 5.14605 11.9968 5.14833C11.5888 5.16317 11.1796 5.15575 10.771 5.15746C10.5862 5.15746 10.5211 5.05874 10.5245 4.88641C10.5297 4.68726 10.5263 4.4881 10.5263 4.28838Z" fill="#134A9B"/>
<path d="M8.72994 4.26089C8.72994 4.46975 8.74762 4.68145 8.72023 4.8886C8.70996 4.96449 8.59469 5.0809 8.52336 5.08433C8.11535 5.10373 7.70563 5.10373 7.29763 5.08433C7.22287 5.0809 7.15268 4.96221 7.08078 4.89602C6.99347 4.81613 6.90045 4.66091 6.82056 4.66776C6.44408 4.68908 6.07052 4.7464 5.70497 4.83895C5.16058 4.99245 4.93517 5.425 4.97227 5.95341C5.01449 6.56628 5.12234 7.17458 5.21136 7.78403C5.28098 8.26222 5.36658 8.73814 5.44304 9.21576C5.44989 9.25913 5.44931 9.3413 5.43619 9.34473C5.21992 9.40179 5.00193 9.47598 4.78224 9.48339C4.7149 9.48339 4.59793 9.30821 4.57682 9.19807C4.43416 8.45624 4.30861 7.70471 4.18364 6.9566C4.12999 6.6792 4.09435 6.39862 4.07693 6.11662C4.03471 4.88974 4.76569 4.13364 5.82137 3.89112C6.11468 3.82321 6.42055 3.80723 6.72127 3.77357C6.8879 3.75531 7.03855 3.73704 7.0979 3.53561C7.11331 3.48197 7.21888 3.42148 7.28393 3.42148C7.69251 3.41121 8.10166 3.42148 8.51024 3.41406C8.66716 3.41406 8.73849 3.47113 8.73164 3.63091C8.72308 3.84261 8.72994 4.05147 8.72994 4.26089Z" fill="#134A9B"/>
</svg>
