<svg width="15" height="18" viewBox="0 0 15 18" fill="none" xmlns="http://www.w3.org/2000/svg">
<g id="Group 58">
<path id="Vector" d="M7.17918 7.16501C9.09842 7.16501 10.6543 5.60916 10.6543 3.68993C10.6543 1.77069 9.09842 0.214844 7.17918 0.214844C5.25995 0.214844 3.7041 1.77069 3.7041 3.68993C3.7041 5.60916 5.25995 7.16501 7.17918 7.16501Z" fill="#134A9B"/>
<path id="Vector_2" d="M7.15471 8.17973C3.33678 8.19312 0.271484 11.3446 0.271484 15.1648V16.5124C0.271484 16.6449 0.297593 16.7761 0.348324 16.8985C0.399056 17.021 0.473414 17.1322 0.567149 17.2259C0.660883 17.3196 0.772147 17.3938 0.894603 17.4445C1.01706 17.4952 1.1483 17.5212 1.28082 17.5211H13.0775C13.21 17.5212 13.3412 17.4952 13.4637 17.4445C13.5861 17.3938 13.6974 17.3196 13.7912 17.2259C13.8849 17.1322 13.9593 17.021 14.01 16.8985C14.0607 16.7761 14.0868 16.6449 14.0868 16.5124V15.0851C14.0865 14.1761 13.9068 13.2761 13.558 12.4367C13.2092 11.5973 12.6981 10.835 12.0542 10.1935C11.4102 9.55195 10.6459 9.04385 9.80513 8.69829C8.96438 8.35274 8.0637 8.17651 7.15471 8.17973Z" fill="#134A9B"/>
</g>
</svg>
