<svg width="73" height="73" viewBox="0 0 73 73" fill="none" xmlns="http://www.w3.org/2000/svg">
<g id="Frame 1000006950">
<circle id="Ellipse 2125" cx="36.416" cy="36.3535" r="36.1582" fill="white"/>
<g id="Group 1000004156">
<path id="Vector" d="M43.4705 29.9552C41.6041 29.8636 40.0978 29.0915 38.9435 27.6088C36.4582 24.4161 31.9234 24.4114 29.4412 27.5898C27.7612 29.742 25.0974 30.5173 22.6105 29.5778C20.1789 28.6572 18.6631 26.2967 18.7973 23.6361C18.9236 21.1302 20.7552 18.9007 23.3211 18.3118C25.7338 17.7591 27.7343 18.5139 29.3812 20.3913C31.0565 22.3018 33.1487 23.3029 35.754 22.7834C37.1166 22.5118 38.0735 21.6055 38.8946 20.5476C40.4499 18.5391 42.5168 17.7496 44.9531 18.2912C47.4669 18.8486 48.9827 20.5255 49.4958 23.0676C50.2143 26.6282 47.1479 30.132 43.4705 29.9552ZM26.198 24.1824C25.6785 23.5619 25.2001 22.9887 24.799 22.5103C24.1879 23.0566 23.6337 23.554 23.2311 23.914C23.749 24.5314 24.2274 25.103 24.6837 25.6461C25.2616 25.0872 25.7843 24.5835 26.198 24.1824ZM43.5368 25.5751C44.1415 25.0414 44.7131 24.5345 45.2089 24.0956C44.6815 23.5129 44.192 22.9745 43.7831 22.5213C43.1831 23.0534 42.6099 23.5587 42.0857 24.0245C42.621 24.5977 43.1183 25.1298 43.5368 25.5751Z" fill="#D9524D"/>
<path id="Vector_2" d="M43.4728 53.638C41.6064 53.5464 40.1001 52.7727 38.9474 51.2916C36.4621 48.0989 31.9273 48.0958 29.4451 51.2727C27.7651 53.4248 25.0998 54.2001 22.6144 53.2591C20.1828 52.3401 18.667 49.9779 18.8012 47.3173C18.9275 44.8115 20.7591 42.582 23.325 41.9946C25.7377 41.442 27.7382 42.1967 29.3851 44.0741C31.0604 45.9847 33.1526 46.9858 35.7579 46.4647C37.1205 46.1931 38.0774 45.2868 38.8985 44.2273C40.4538 42.2188 42.5207 41.4293 44.957 41.9709C47.4708 42.5283 48.9866 44.2052 49.4998 46.7473C50.2166 50.3111 47.1487 53.8149 43.4728 53.638ZM24.6798 49.329C25.2292 48.7684 25.7519 48.2347 26.2793 47.6963C25.7835 47.1879 25.2624 46.6526 24.7224 46.0984C24.1713 46.6589 23.6471 47.1926 23.1166 47.731C23.6471 48.2726 24.1697 48.8079 24.6798 49.329ZM45.2255 47.7326C44.7139 47.1942 44.1991 46.6542 43.7223 46.1521C43.1617 46.7173 42.6343 47.2463 42.1733 47.7105C42.6407 48.2395 43.1349 48.7984 43.6212 49.3495C44.1802 48.7858 44.6918 48.2695 45.2255 47.7326Z" fill="#D9524D"/>
<path id="Vector_3" d="M28.4297 35.8719C28.4329 33.3519 30.0308 31.1208 32.4261 30.2918C34.804 29.4692 37.4425 30.2524 39.0057 32.245C41.6537 35.6209 46.0038 35.6351 48.6185 32.275C50.7439 29.5434 54.7387 29.1865 57.2761 31.5045C59.8546 33.8587 59.8625 37.8899 57.2935 40.2552C54.7655 42.5826 50.7644 42.2431 48.6312 39.5194C46.0574 36.2335 41.5794 36.2209 39.0325 39.491C37.4394 41.5357 34.8119 42.3205 32.3977 41.471C30.0024 40.6294 28.4265 38.4046 28.4297 35.8719ZM35.9141 35.853C35.4183 35.3446 34.8956 34.8093 34.3556 34.2551C33.8045 34.8156 33.2803 35.3493 32.7482 35.8877C33.2803 36.4309 33.8014 36.9646 34.313 37.4872C34.8625 36.9267 35.3851 36.393 35.9141 35.853ZM53.436 34.3988C52.8044 34.9277 52.2313 35.4077 51.8097 35.7598C52.3276 36.3756 52.8076 36.9457 53.215 37.4288C53.8229 36.8825 54.3771 36.3835 54.9029 35.9098C54.3502 35.3398 53.8434 34.8188 53.436 34.3988Z" fill="#F15B55"/>
<path id="Vector_4" d="M26.199 24.1839C25.7837 24.5849 25.261 25.0886 24.6831 25.6476C24.2268 25.1044 23.7484 24.5328 23.2305 23.9154C23.6331 23.5554 24.1889 23.058 24.7984 22.5117C25.201 22.9917 25.6795 23.5633 26.199 24.1839Z" fill="white"/>
<path id="Vector_5" d="M43.5386 25.5756C43.1202 25.1288 42.6228 24.5982 42.0859 24.0266C42.6117 23.5608 43.1833 23.0556 43.7833 22.5234C44.1939 22.975 44.6818 23.515 45.2092 24.0977C44.7149 24.5351 44.1433 25.0419 43.5386 25.5756Z" fill="white"/>
<path id="Vector_6" d="M24.6804 49.3322C24.1704 48.8111 23.6493 48.2758 23.1172 47.7342C23.6461 47.1958 24.1704 46.6637 24.723 46.1016C25.263 46.6558 25.7841 47.1911 26.2799 47.6995C25.7525 48.2379 25.2283 48.7716 24.6804 49.3322Z" fill="white"/>
<path id="Vector_7" d="M45.224 47.7329C44.6904 48.2698 44.1772 48.7861 43.6198 49.3498C43.1335 48.8003 42.6393 48.2398 42.1719 47.7108C42.6345 47.2466 43.1603 46.716 43.7209 46.1523C44.1977 46.6529 44.7125 47.1945 45.224 47.7329Z" fill="white"/>
<path id="Vector_8" d="M35.912 35.8557C35.383 36.3958 34.8603 36.9294 34.3109 37.49C33.7993 36.9673 33.2782 36.4336 32.7461 35.8905C33.2766 35.3505 33.8009 34.8184 34.3535 34.2578C34.8935 34.812 35.4162 35.3473 35.912 35.8557Z" fill="white"/>
<path id="Vector_9" d="M53.4349 34.3984C53.8423 34.8184 54.3492 35.3395 54.9018 35.9079C54.376 36.3816 53.8218 36.8806 53.2139 37.4269C52.8065 36.9438 52.3265 36.3737 51.8086 35.7579C52.2302 35.4074 52.8018 34.9274 53.4349 34.3984Z" fill="white"/>
</g>
</g>
</svg>
