<svg width="73" height="73" viewBox="0 0 73 73" fill="none" xmlns="http://www.w3.org/2000/svg">
<g id="Frame 1000006947">
<circle id="Ellipse 2124" cx="36.1582" cy="36.4434" r="36.1582" fill="white"/>
<g id="Group">
<path id="Vector" d="M58.7928 47.3665L58.3373 44.1198C58.3373 44.0254 58.3282 43.9293 58.3137 43.8313C58.2647 43.5137 58.2139 43.1943 58.1631 42.8767L58.1485 42.7696H58.1467C58.0324 42.0509 57.9144 41.3305 57.7965 40.6118C57.4353 38.3959 56.2793 36.6973 54.2285 35.8044C51.8711 34.7772 49.6153 33.387 46.8949 33.3979C47.0292 32.8136 47.2434 32.2909 47.2561 31.7646C47.3159 29.046 47.4884 26.3165 47.3087 23.6107C47.1054 20.52 45.2035 18.5274 42.2091 17.7888C39.6611 17.159 37.1131 16.5384 34.5597 15.9322C31.3819 15.1791 28.2478 16.7616 27.0028 19.776C26.3694 21.3077 25.8141 22.872 25.2225 24.4219C25.1844 24.5235 25.1481 24.6251 25.1172 24.7268L24.1009 27.5143C24.0791 27.5379 24.061 27.5651 24.0519 27.5942C23.9975 27.7648 23.9412 27.9354 23.885 28.1078C23.4803 29.3346 23.0574 30.5795 22.9776 31.839C22.9068 32.9714 23.4367 34.142 23.7071 35.3325C21.8651 35.5739 20.1973 36.3651 19.0993 38.0293C17.3008 40.7515 15.4951 43.4719 13.8237 46.2704C11.5896 50.0107 13.6658 54.7963 17.9233 55.7509C20.0394 56.2264 22.2026 56.5023 24.3495 56.8307C25.6598 57.0304 26.9865 57.3244 28.2968 57.279C30.5598 57.201 32.2766 56.0068 33.5397 54.0305C34.7793 56.4188 36.5487 57.9033 39.1529 57.9432C43.9313 58.0176 48.7133 58.0249 53.4917 57.9287C56.2793 57.8724 58.6349 55.7037 59.2429 52.9743C59.673 51.0524 59.1322 49.2158 58.7928 47.3665ZM25.2824 28.9843L25.2896 28.9662C25.2932 28.9589 25.2951 28.9498 25.2987 28.9426L26.8812 24.7322C27.422 23.3094 27.9592 21.883 28.5363 20.4747C29.4963 18.1372 31.7467 16.9902 34.2058 17.571C36.7882 18.1808 39.3689 18.7978 41.9441 19.4402C44.229 20.0101 45.6173 21.7087 45.6699 24.0716C45.7189 26.3093 45.6862 28.5488 45.6808 30.7864C45.6772 32.2673 45.091 33.4905 43.9586 34.4324C42.3543 35.7663 40.7536 37.1074 39.1003 38.3778C37.761 39.4068 36.2129 39.6427 34.6413 39.0293C32.1968 38.0765 29.7704 37.0765 27.373 36.0076C25.0482 34.9714 24.0374 32.5214 24.8414 30.1113C24.9666 29.732 25.1408 29.36 25.2824 28.9843ZM32.3202 52.6022C31.6197 54.5042 29.8158 55.6529 27.373 55.6203C25.4421 55.3117 23.0901 54.9397 20.7399 54.5604C19.9069 54.4261 19.0648 54.3227 18.2482 54.1212C15.2084 53.3717 13.6186 49.9653 15.1902 47.2685C16.8616 44.4047 18.6982 41.6335 20.5493 38.8805C21.6473 37.249 23.8487 36.5503 25.7088 37.2326C27.9683 38.0638 30.2059 38.9712 32.3873 39.9893C34.4235 40.9385 35.4162 43.3395 34.7393 45.5063C33.9953 47.891 33.1822 50.2575 32.3202 52.6022ZM52.931 56.3008C48.5137 56.3244 44.0965 56.3226 39.6792 56.3026C36.1767 56.2881 33.9644 53.2193 35.0587 49.9C35.8046 47.6387 36.5233 45.363 37.4125 43.1562C37.8027 42.187 38.4524 41.2343 39.2183 40.5265C40.8371 39.0311 42.6101 37.7045 44.3179 36.3053C45.5955 35.2581 47.0909 34.8008 48.6389 35.3107C50.4646 35.9133 52.2395 36.7081 53.9618 37.5702C55.2467 38.2126 55.9054 39.4304 56.1486 40.8441C56.2902 41.6716 56.4317 42.4992 56.5551 43.3286C56.459 43.5264 57.2157 47.715 57.2157 47.715C57.3119 48.6986 57.4952 49.6786 57.6495 50.6568C58.1322 53.7111 56.0071 56.2845 52.931 56.3008Z" fill="#D9524D"/>
<path id="Vector_2" d="M45.9755 42.1413C44.1298 42.1776 42.5818 43.7492 42.5781 45.5913C42.5727 47.4823 44.1461 49.0376 46.0553 49.0321C47.9917 49.0267 49.4726 47.5132 49.4599 45.5586C49.4454 43.6367 47.881 42.1032 45.9755 42.1413Z" fill="#F15B55"/>
<path id="Vector_3" d="M34.9067 31.7816C36.7687 31.7743 38.3149 30.2481 38.344 28.3915C38.373 26.5132 36.7996 24.9071 34.9158 24.8908C33.0211 24.8744 31.4531 26.4352 31.4531 28.3389C31.4495 30.2626 32.983 31.7888 34.9067 31.7816Z" fill="#F15B55"/>
<path id="Vector_4" d="M24.4466 42.7735C22.552 42.759 20.9586 44.3234 20.9531 46.2053C20.9495 48.0855 22.5356 49.6498 24.4357 49.6408C26.3758 49.6317 27.8567 48.1236 27.8421 46.169C27.8294 44.2744 26.3431 42.7881 24.4466 42.7735Z" fill="#F15B55"/>
</g>
</g>
</svg>
