<svg width="73" height="73" viewBox="0 0 73 73" fill="none" xmlns="http://www.w3.org/2000/svg">
<g id="Frame 1000006948">
<circle id="Ellipse 2126" cx="36.1582" cy="36.3262" r="36.1582" fill="white"/>
<g id="Group">
<path id="Vector" d="M53.3857 29.48C53.2424 29.9843 53.127 30.4998 52.9465 30.9911C52.8051 31.3782 52.6227 31.7634 52.3919 32.104C51.2716 33.7472 51.1953 35.5281 51.5545 37.4132C51.6848 38.1018 51.6904 38.8573 51.5545 39.5421C51.3182 40.7313 50.5068 41.5166 49.4014 41.993C45.4879 43.6808 46.3662 42.9904 44.0196 46.5039C43.0109 48.0131 41.5538 48.5286 39.8045 48.028C39.7599 48.015 39.7152 48.0057 39.6706 47.9926C35.7756 46.8463 36.8363 46.8463 32.9209 47.9926C30.9874 48.5584 29.4968 48.0764 28.4789 46.3159C27.3493 44.3638 25.9238 42.9309 23.7167 42.1642C21.3012 41.3249 20.6499 39.9497 21.0128 37.4076C21.091 36.8586 21.1691 36.3115 21.2343 35.7607C21.3366 34.8916 21.2156 34.0617 20.7969 33.2801C20.4266 32.5878 20.0749 31.8881 19.7306 31.1828C18.9323 29.5526 19.2021 28.0118 20.5048 26.7631C21.0891 26.2029 21.679 25.6502 22.2764 25.105C22.9128 24.5244 23.2999 23.8135 23.4804 22.9742C23.6349 22.254 23.8191 21.5376 23.9959 20.823C24.4779 18.8597 25.6391 17.8901 27.6582 17.7692C28.3728 17.7264 29.0893 17.6687 29.8039 17.6594C30.7753 17.6482 31.5922 17.2797 32.3385 16.6898C32.9358 16.2171 33.5481 15.7593 34.1659 15.3146C35.4816 14.3692 37.0355 14.3525 38.3698 15.2718C38.8257 15.5863 39.2946 15.8952 39.6966 16.273C40.9062 17.4081 42.3633 17.7561 43.9619 17.7487C44.4922 17.7468 45.0263 17.7747 45.5493 17.8529C47.1683 18.093 48.1397 19.0681 48.5621 20.6164C48.7147 21.1728 48.8785 21.7311 48.9566 22.2987C49.1446 23.6776 49.7922 24.7644 50.866 25.6335C51.3498 26.0261 51.7946 26.469 52.2356 26.9101C52.9353 27.6079 53.3056 28.4565 53.3857 29.48ZM25.1124 31.4191C25.1124 37.6049 30.1146 42.6052 36.3023 42.6034C42.4843 42.5996 47.4865 37.5919 47.4846 31.4061C47.4846 25.2278 42.4731 20.2219 36.2892 20.2237C30.1053 20.2237 25.1124 25.2241 25.1124 31.4191Z" fill="#D9524D"/>
<path id="Vector_2" d="M33.0744 50.3118C32.4771 51.6014 31.9095 52.8315 31.34 54.0616C30.8153 55.1911 30.2961 56.3226 29.7508 57.441C29.641 57.668 29.427 57.8448 29.2595 58.0458C29.0809 57.8504 28.8613 57.6811 28.7292 57.4578C28.0648 56.3486 27.4153 55.2321 26.7808 54.1081C26.5984 53.7843 26.4253 53.6614 26.0178 53.7452C24.663 54.0206 23.2971 54.2402 21.9349 54.4728C21.3803 54.5677 21.1812 54.3705 21.3989 53.9015C22.6681 51.1622 23.954 48.4322 25.238 45.6985C25.2455 45.6836 25.279 45.6799 25.3646 45.6445C25.7461 46.2214 26.1499 46.8002 26.5202 47.3994C27.9606 49.7237 30.0188 50.7249 32.7358 50.336C32.8195 50.3211 32.9051 50.3229 33.0744 50.3118Z" fill="#D9524D"/>
<path id="Vector_3" d="M47.2742 45.4531C47.9627 46.9344 48.5619 48.2259 49.1649 49.5155C49.7976 50.8722 50.4396 52.2269 51.0575 53.5891C51.1635 53.8218 51.1673 54.1009 51.2194 54.3577C50.9402 54.3726 50.6536 54.4359 50.3838 54.3931C49.1314 54.1995 47.879 54.0004 46.6377 53.7473C46.2153 53.6617 46.0143 53.7622 45.8133 54.1214C45.1471 55.3068 44.453 56.4792 43.7589 57.6478C43.4425 58.1819 43.1913 58.1968 42.9512 57.6869C41.8253 55.29 40.7162 52.8838 39.6034 50.4795C39.5866 50.4442 39.6108 50.3921 39.622 50.2804C43.5597 51.0806 45.5677 48.6446 47.2742 45.4531Z" fill="#D9524D"/>
<path id="Vector_4" d="M31.5253 28.846C32.0334 28.846 32.5451 28.8106 33.0513 28.8534C33.8217 28.9186 34.2498 28.6283 34.4545 27.8597C34.728 26.8362 35.0946 25.8387 35.4222 24.8319C35.5673 24.389 35.692 23.8922 36.2745 23.8791C36.9035 23.8661 37.0263 24.3946 37.177 24.858C37.5194 25.9094 37.8674 26.9609 38.1875 28.0197C38.368 28.6171 38.7253 28.872 39.358 28.8553C40.536 28.8255 41.7177 28.8106 42.8938 28.8702C43.2176 28.8869 43.7182 29.1363 43.7926 29.3838C43.8708 29.6443 43.6252 30.1356 43.3702 30.3403C42.4565 31.081 41.4907 31.7602 40.5211 32.4302C40.0075 32.7856 39.8549 33.1801 40.0726 33.7868C40.4597 34.8717 40.7835 35.979 41.1408 37.0751C41.2822 37.5124 41.379 37.9385 40.9249 38.2586C40.4876 38.5657 40.1433 38.3051 39.8009 38.0539C38.9058 37.4007 37.9884 36.7736 37.1156 36.0906C36.5573 35.6533 36.0902 35.6142 35.5133 36.0701C34.6089 36.7866 33.6505 37.4342 32.7163 38.1153C32.3814 38.3591 31.9701 38.5917 31.6686 38.227C31.4621 37.9776 31.3523 37.4993 31.436 37.1867C31.7449 36.0311 32.1283 34.8922 32.5321 33.7626C32.7387 33.182 32.5954 32.7986 32.1115 32.4581C31.1476 31.7807 30.2059 31.0717 29.2457 30.3887C28.8772 30.1263 28.5441 29.7802 28.7935 29.3652C28.9517 29.1009 29.3927 28.9167 29.7295 28.872C30.3157 28.7902 30.9243 28.846 31.5253 28.846Z" fill="#F15B55"/>
</g>
</g>
</svg>
