<svg width="99" height="103" viewBox="0 0 99 103" fill="none" xmlns="http://www.w3.org/2000/svg">
<rect width="99" height="103" fill="#F5F5F5"/>
<g id="Mobile">
<path d="M-6722 -2166C-6722 -2167.1 -6721.1 -2168 -6720 -2168H40999C41000.1 -2168 41001 -2167.1 41001 -2166V8860C41001 8861.1 41000.1 8862 40999 8862H-6720C-6721.1 8862 -6722 8861.1 -6722 8860V-2166Z" fill="#787878"/>
<path d="M-6720 -2167H40999V-2169H-6720V-2167ZM41000 -2166V8860H41002V-2166H41000ZM40999 8861H-6720V8863H40999V8861ZM-6721 8860V-2166H-6723V8860H-6721ZM-6720 8861C-6720.55 8861 -6721 8860.55 -6721 8860H-6723C-6723 8861.66 -6721.66 8863 -6720 8863V8861ZM41000 8860C41000 8860.55 40999.6 8861 40999 8861V8863C41000.7 8863 41002 8861.66 41002 8860H41000ZM40999 -2167C40999.6 -2167 41000 -2166.55 41000 -2166H41002C41002 -2167.66 41000.7 -2169 40999 -2169V-2167ZM-6720 -2169C-6721.66 -2169 -6723 -2167.66 -6723 -2166H-6721C-6721 -2166.55 -6720.55 -2167 -6720 -2167V-2169Z" fill="black" fill-opacity="0.1"/>
<g id="Group 1000004207" opacity="0.1">
<path id="Vector" d="M49.3861 30.4424C45.322 30.4299 42.204 27.3287 42.1666 23.4678C42.148 21.7615 41.9675 20.0863 41.2455 18.5233C40.1626 16.1756 38.4138 14.7558 35.7251 14.6312C33.1672 14.5129 31.2192 12.6696 30.9702 10.216C30.7337 7.86833 32.271 5.68253 34.5924 5.05357C37.4117 4.29384 40.4987 6.29904 40.6107 9.1387C40.7974 13.9026 44.0151 15.9639 47.9546 16.2939C50.0022 16.4683 52.0374 16.3126 53.9418 15.4345C56.3628 14.3136 57.8378 12.5015 58.0246 9.76766C58.1615 7.76869 59.0764 6.25545 60.9372 5.42721C62.6736 4.65502 64.3416 4.89166 65.8664 6.00636C67.4223 7.13973 68.1194 9.23211 67.6152 11.1252C67.1173 12.9934 65.4618 14.6125 63.6134 14.6374C58.7216 14.7059 56.2819 18.5171 56.2757 22.9447C56.2757 25.4605 55.4044 27.5591 53.3506 29.0848C52.1121 30.0065 50.6993 30.4113 49.3861 30.4362V30.4424Z" fill="#D9524D"/>
<path id="Vector_2" d="M65.7235 67.2084C67.9702 67.2707 69.7938 68.1923 71.2501 69.9546C72.1339 71.0195 73.0488 72.1031 74.1192 72.9624C76.59 74.9552 79.1542 75.0174 81.8553 73.3797C83.6041 72.3148 85.409 72.2961 87.1329 73.417C88.8569 74.5442 89.5913 76.2318 89.2614 78.2432C88.9254 80.2795 87.6931 81.6745 85.6579 82.1727C83.7348 82.6459 81.9797 82.1726 80.7661 80.5971C78.7061 77.9069 75.5133 77.004 72.0405 78.6355C69.8871 79.6444 68.0325 81.0517 66.7193 83.0632C65.1136 85.5292 64.958 88.045 66.5512 90.6231C68.2441 93.3694 67.0118 96.8256 64.0369 97.8282C61.7777 98.5941 59.3691 97.6725 58.1991 95.605C57.0477 93.5624 57.5082 90.947 59.3691 89.4773C61.0246 88.1633 62.0017 86.5255 62.0889 84.3958C62.1449 83.0009 61.8026 81.6807 61.1802 80.4477C60.813 79.7191 60.3774 79.0154 59.9168 78.3428C56.9294 73.9713 59.3069 68.2234 64.5161 67.2831C64.902 67.2146 65.3065 67.2271 65.7359 67.2021L65.7235 67.2084Z" fill="#D9524D"/>
<path id="Vector_3" d="M16.3883 37.2965C16.3448 33.8092 15.0129 31.449 11.8824 30.1973C9.57339 29.2694 8.41579 26.8034 9.05683 24.4495C9.66675 22.2076 11.9135 20.6134 14.1042 20.8625C16.7182 21.1615 18.5915 23.0982 18.6164 25.6576C18.6226 26.4111 18.3488 27.1646 18.2367 27.9243C17.8135 30.8574 19.0334 33.0743 21.4108 34.6561C22.3879 35.3099 23.5082 35.7832 24.6222 36.1818C27.7341 37.2902 29.6385 40.0489 29.4705 43.3556C29.3149 46.4942 27.0681 49.0972 23.8941 49.7947C22.6058 50.0812 21.3299 49.9566 20.0727 49.5581C18.3239 49.0038 16.5377 48.7485 14.7079 49.1097C12.4052 49.5581 10.8306 50.872 9.97793 53.0827C8.93858 55.7792 6.21883 57.0059 3.61112 56.0158C1.27724 55.1253 0.0138311 52.541 0.72333 50.0998C1.41416 47.7335 3.8974 46.0272 6.20639 46.7246C10.9986 48.1756 14.1602 45.174 15.4734 41.4875C15.7411 40.7402 15.9776 39.9804 16.1394 39.2082C16.2887 38.5108 16.3199 37.7822 16.3821 37.3027L16.3883 37.2965Z" fill="#D9524D"/>
<path id="Vector_4" d="M39.9135 74.4119C39.9135 75.9189 39.4405 77.2454 38.5879 78.4597C37.5237 79.9792 36.671 81.592 36.4221 83.4727C36.1109 85.8391 36.8453 87.782 38.7124 89.2766C40.3679 90.603 41.0214 92.3155 40.5235 94.3705C40.0505 96.3384 38.7435 97.5776 36.7581 97.9575C34.6794 98.3498 32.9493 97.6461 31.7792 95.8838C30.6465 94.1775 30.6092 92.3466 31.7232 90.6154C32.9493 88.7099 33.3974 86.686 32.5136 84.5998C32.0282 83.4416 31.244 82.3331 30.354 81.4364C28.5242 79.5868 26.3459 78.2604 23.676 77.9491C21.2674 77.6626 19.2945 78.4659 17.7261 80.3217C16.2076 82.1276 14.1413 82.7005 12.1124 81.9159C9.44244 80.8821 8.2226 77.8432 9.44866 75.2651C10.6498 72.7368 13.8675 71.6034 16.2138 73.1727C20.0725 75.7508 23.9623 74.1379 26.3708 71.2049C26.987 70.4576 27.5409 69.6293 28.2691 69.0128C30.5282 67.1197 33.1048 66.7274 35.7872 67.948C38.5194 69.1872 39.8077 71.4477 39.8949 74.4119H39.9135Z" fill="#D9524D"/>
<path id="Vector_5" d="M84.7868 21.0596C87.1581 21.0596 89.0625 22.6351 89.548 24.9828C90.0023 27.1748 88.8322 29.5661 86.6975 30.3196C83.1687 31.5713 81.3514 34.6538 82.1667 38.8573C82.6521 41.3607 83.5794 43.6835 85.5275 45.4458C87.2888 47.04 89.3239 47.6004 91.6702 47.0026C94.2904 46.3363 96.755 47.6378 97.6076 50.0851C98.4354 52.4328 97.3338 55.0359 95.0559 56.1007C92.554 57.2715 89.4919 56.1879 88.5584 53.56C87.295 50.0104 83.8844 48.2356 79.8266 49.0701C78.8557 49.2694 77.9097 49.6056 76.9326 49.7613C73.3664 50.3342 69.9869 48.0675 69.0783 44.5428C68.1821 41.0617 70.1114 37.4001 73.5158 36.1982C75.4078 35.5319 77.2251 34.7535 78.613 33.234C80.1627 31.5339 80.7166 29.5848 80.1129 27.3118C79.2353 23.9989 81.4634 21.0596 84.7806 21.0596H84.7868Z" fill="#D9524D"/>
<path id="Vector_6" d="M22.487 67.205C18.5972 67.205 15.4293 64.0353 15.4356 60.137C15.4356 56.2636 18.6594 53.069 22.5305 53.0939C26.3768 53.1188 29.526 56.2823 29.5446 60.1432C29.5633 64.0229 26.383 67.205 22.487 67.205Z" fill="#D9524D"/>
<path id="Vector_7" d="M42.1605 79.5314C42.1605 75.6767 45.3097 72.5381 49.1808 72.507C53.0333 72.4821 56.2696 75.7078 56.2634 79.5688C56.2634 83.4484 53.0706 86.6181 49.1746 86.6181C45.2786 86.6181 42.1481 83.4546 42.1543 79.5314H42.1605Z" fill="#D9524D"/>
<path id="Vector_8" d="M82.9382 60.2118C82.9258 64.1288 79.7953 67.2238 75.8432 67.2051C71.9908 67.1864 68.8665 64.0167 68.8789 60.1371C68.8852 56.2325 72.0779 53.0628 75.9553 53.094C79.8762 53.1313 82.9507 56.2575 82.9382 60.2118Z" fill="#D9524D"/>
<path id="Vector_9" d="M58.6914 28.7233C58.7039 24.7939 61.8406 21.6927 65.7864 21.7051C69.6762 21.7176 72.7694 24.8935 72.7507 28.8603C72.732 32.6714 69.5704 35.81 65.7304 35.8162C61.8281 35.8225 58.6852 32.6528 58.6976 28.7295L58.6914 28.7233Z" fill="#D9524D"/>
<path id="Vector_10" d="M39.7273 28.7416C39.7273 32.6524 36.5657 35.8283 32.6883 35.8159C28.8048 35.8034 25.5809 32.5714 25.6245 28.7354C25.668 24.8246 28.8359 21.6985 32.7319 21.711C36.5906 21.7234 39.7273 24.8745 39.7273 28.7479V28.7416Z" fill="#D9524D"/>
<path id="Vector_11" d="M26.7508 13.8878C26.7446 16.6029 24.5849 18.7264 21.8465 18.7264C19.0272 18.7264 16.9049 16.5904 16.9111 13.7695C16.9174 11.0357 19.1143 8.85609 21.859 8.86232C24.6223 8.86855 26.7632 11.0668 26.7508 13.8878Z" fill="#D9524D"/>
<path id="Vector_12" d="M93.4374 42.0172C90.6928 41.9985 88.5394 39.8127 88.5518 37.054C88.5705 34.314 90.7612 32.1344 93.4934 32.1406C96.2505 32.1406 98.4537 34.3887 98.4226 37.1536C98.3914 39.8874 96.1883 42.0359 93.4312 42.0172H93.4374Z" fill="#D9524D"/>
<path id="Vector_13" d="M26.7508 89.1222C26.7508 91.8934 24.6098 94.0729 21.8776 94.0854C19.0832 94.0979 16.9111 91.9307 16.9111 89.1409C16.9111 86.376 19.0583 84.2275 21.8278 84.2275C24.6036 84.2275 26.7508 86.3573 26.757 89.1284L26.7508 89.1222Z" fill="#D9524D"/>
<path id="Vector_14" d="M76.5716 84.2168C79.3162 84.2168 81.5318 86.4151 81.538 89.1302C81.538 91.8764 79.3037 94.0871 76.5342 94.0809C73.8207 94.0747 71.5864 91.8204 71.6175 89.1239C71.6424 86.3839 73.8456 84.2106 76.5778 84.2168H76.5716Z" fill="#D9524D"/>
<path id="Vector_15" d="M5.01141 60.9242C7.78717 60.9865 9.90944 63.2096 9.86587 66.0057C9.81608 68.7208 7.51955 70.8568 4.72512 70.7945C2.03649 70.7322 -0.0608868 68.4593 0.0013499 65.6756C0.0635866 62.9854 2.30411 60.8619 5.01141 60.9242Z" fill="#D9524D"/>
<path id="Vector_16" d="M76.5218 18.7267C73.7834 18.7143 71.5864 16.4973 71.6175 13.776C71.6424 11.0297 73.9016 8.83149 76.6649 8.86263C79.3224 8.89377 81.5381 11.1294 81.5443 13.8009C81.5443 16.5347 79.3038 18.7392 76.528 18.7267H76.5218Z" fill="#D9524D"/>
<path id="Vector_17" d="M54.1161 98.0675C54.1099 100.801 51.9005 103.012 49.1932 103C46.4859 102.987 44.2578 100.751 44.2578 98.0426C44.2578 95.3026 46.5295 93.0483 49.2554 93.0794C51.9876 93.1106 54.1286 95.3026 54.1223 98.0675H54.1161Z" fill="#D9524D"/>
<path id="Vector_18" d="M93.5555 60.9287C96.3437 60.9848 98.4784 63.2079 98.4286 65.9915C98.3788 68.7378 96.1258 70.8551 93.3065 70.8053C90.649 70.7554 88.5018 68.4949 88.5516 65.786C88.6014 63.046 90.8295 60.8789 93.5492 60.9349L93.5555 60.9287Z" fill="#D9524D"/>
<path id="Vector_19" d="M49.1811 5.45035e-05C51.9631 -0.0124002 54.1103 2.11112 54.1165 4.87605C54.1165 7.65344 51.988 9.83923 49.262 9.86414C46.4987 9.88282 44.252 7.6659 44.252 4.91964C44.252 2.17962 46.4302 0.00628183 49.1811 5.45035e-05Z" fill="#D9524D"/>
<path id="Vector_20" d="M0.00119523 37.027C0.0260899 34.2807 2.21682 32.1198 4.96146 32.1447C7.71855 32.1634 9.89061 34.4053 9.8595 37.1889C9.82838 39.8978 7.58163 42.0587 4.83699 42.0213C2.0799 41.9777 -0.0236995 39.8106 0.00119523 37.027Z" fill="#D9524D"/>
</g>
</g>
</svg>
