<svg width="25" height="24" viewBox="0 0 25 24" fill="none" xmlns="http://www.w3.org/2000/svg">
<path d="M11.1654 1.67007C11.8145 0.272288 13.8017 0.272288 14.4508 1.67007L16.6597 6.42656C16.9237 6.99484 17.4625 7.38635 18.0845 7.46174L23.2908 8.09273C24.8208 8.27816 25.4349 10.1681 24.3061 11.2174L20.465 14.788C20.0061 15.2146 19.8003 15.8481 19.9208 16.463L20.9295 21.6095C21.2259 23.1218 19.6183 24.2899 18.2715 23.5406L13.6887 20.9909C13.1411 20.6863 12.475 20.6863 11.9275 20.9909L7.34463 23.5406C5.99788 24.2899 4.39022 23.1218 4.68666 21.6095L5.69538 16.463C5.8159 15.8481 5.61007 15.2146 5.15116 14.788L1.31006 11.2174C0.181286 10.1681 0.795355 8.27816 2.32532 8.09273L7.53162 7.46174C8.15363 7.38635 8.6925 6.99484 8.95642 6.42656L11.1654 1.67007Z" fill="#FFE55D"/>
</svg>
