<svg width="12" height="13" viewBox="0 0 12 13" fill="none" xmlns="http://www.w3.org/2000/svg">
<path id="Vector" fill-rule="evenodd" clip-rule="evenodd" d="M12 6.09618L10.9936 5.57023C10.9936 5.57023 11.2632 4.93165 11.507 4.37867C10.6478 4.01715 9.76604 3.76938 8.37304 4.26605C8.19522 4.33094 8.02624 4.41991 7.8704 4.53071C7.91686 4.36199 7.94956 4.18943 7.96814 4.0149C8.18294 1.94489 6.93278 0.801758 6.93278 0.801758L6.16271 1.65995C6.16271 1.65995 5.65685 1.20945 5.22295 0.801758C4.64513 1.55971 4.16289 2.37848 4.21122 3.91466C4.22366 4.1784 4.27586 4.4384 4.36588 4.685C4.27137 4.61856 4.17256 4.55437 4.06838 4.49468C2.3231 3.50021 0.631523 4.34939 0.631523 4.34939L1.21471 5.40354C1.21471 5.40354 0.520899 5.78533 0 6.05338C0.450013 6.90143 1.17498 7.56591 2.55294 8.10312C2.7154 8.1664 2.88584 8.20434 3.0588 8.21574C2.9514 8.32837 2.844 8.44099 2.7366 8.57389C1.44778 10.1607 1.98478 11.8174 1.98478 11.8174L3.07814 11.5438C3.07814 11.5438 3.26287 12.2195 3.41323 12.8018C4.29285 12.5022 5.25732 12.3513 5.98013 10.9998C6.0398 10.8886 6.09185 10.773 6.13586 10.654C6.18027 10.7463 6.22976 10.8358 6.28408 10.9221C7.38924 12.6565 9.0486 12.6846 9.0486 12.6846L9.11411 11.5066C9.11411 11.5066 9.78001 11.5156 10.36 11.5325C10.3385 10.5639 10.2096 9.6179 9.23011 8.46576C9.11777 8.3363 8.99367 8.21862 8.85957 8.11438C9.0289 8.11148 9.19771 8.09416 9.36436 8.06258C11.318 7.68304 12 6.09618 12 6.09618ZM7.87899 7.56028C7.84128 7.56002 7.80475 7.54642 7.77532 7.52169C7.74589 7.49696 7.72528 7.46254 7.71682 7.424L6.8039 7.3553C6.79529 7.40072 6.78271 7.4452 6.76631 7.4882L7.44402 7.84746C7.46879 7.824 7.50086 7.81079 7.53423 7.8103C7.57041 7.8103 7.6051 7.82537 7.63068 7.85219C7.65626 7.87902 7.67063 7.9154 7.67063 7.95333C7.67063 7.99126 7.65626 8.02764 7.63068 8.05447C7.6051 8.08129 7.57041 8.09636 7.53423 8.09636C7.49806 8.09636 7.46336 8.08129 7.43778 8.05447C7.4122 8.02764 7.39783 7.99126 7.39783 7.95333C7.39783 7.95333 7.39783 7.94545 7.39783 7.94094L6.7212 7.58168C6.68286 7.65215 6.63348 7.71534 6.57514 7.76863L6.9693 8.41621C6.97736 8.41357 6.98563 8.41168 6.994 8.41058C7.03018 8.41058 7.06487 8.42565 7.09045 8.45248C7.11603 8.4793 7.1304 8.51568 7.1304 8.55361C7.13055 8.57249 7.12712 8.59121 7.12033 8.6087C7.11354 8.62618 7.10351 8.64208 7.09083 8.65548C7.07815 8.66888 7.06307 8.67952 7.04645 8.68678C7.02983 8.69404 7.01201 8.69777 6.994 8.69777C6.976 8.69777 6.95818 8.69404 6.94156 8.68678C6.92494 8.67952 6.90985 8.66888 6.89717 8.65548C6.88449 8.64208 6.87447 8.62618 6.86768 8.6087C6.86089 8.59121 6.85746 8.57249 6.8576 8.55361C6.85799 8.52426 6.86741 8.49581 6.88445 8.47252C6.75557 8.25854 6.62597 8.04531 6.49566 7.83282C6.44686 7.86569 6.39461 7.89252 6.33993 7.91279L6.63636 8.81377C6.66912 8.81551 6.7 8.83039 6.72259 8.85534C6.74518 8.88029 6.75776 8.91339 6.75772 8.94779C6.75744 8.98374 6.74362 9.01811 6.71928 9.04343C6.69494 9.06874 6.66205 9.08295 6.62776 9.08294C6.61084 9.08294 6.59408 9.07945 6.57844 9.07265C6.56281 9.06586 6.5486 9.05591 6.53663 9.04336C6.52466 9.03081 6.51517 9.01591 6.50869 8.99951C6.50221 8.98312 6.49888 8.96554 6.49888 8.94779C6.49887 8.92874 6.50281 8.90992 6.51041 8.89261C6.51801 8.87531 6.5291 8.85993 6.54292 8.84756L6.24327 7.93531C6.19941 7.94444 6.1548 7.94896 6.11009 7.94883H6.09075V8.98608C6.11537 8.99623 6.13652 9.0139 6.15145 9.03679C6.16639 9.05968 6.17443 9.08674 6.17453 9.11448C6.17467 9.13286 6.17132 9.15109 6.16468 9.1681C6.15804 9.18511 6.14823 9.20057 6.13584 9.21356C6.12344 9.22656 6.10871 9.23684 6.09248 9.2438C6.07626 9.25077 6.05888 9.25428 6.04135 9.25413C6.00603 9.25413 5.97215 9.23942 5.94718 9.21323C5.9222 9.18704 5.90817 9.15151 5.90817 9.11448C5.90827 9.08674 5.91631 9.05968 5.93125 9.03679C5.94618 9.0139 5.96733 8.99623 5.99194 8.98608V7.93869C5.91348 7.92513 5.83788 7.89731 5.76855 7.85648C5.55876 8.09674 5.34968 8.33625 5.14132 8.57501C5.15454 8.59823 5.16193 8.62457 5.1628 8.6516C5.1628 8.67314 5.15874 8.69446 5.15085 8.71435C5.14295 8.73423 5.13139 8.75229 5.11681 8.76747C5.10224 8.78265 5.08494 8.79466 5.06592 8.8028C5.0469 8.81094 5.02654 8.81505 5.006 8.8149C4.98555 8.8149 4.96529 8.81067 4.9464 8.80247C4.92751 8.79426 4.91034 8.78224 4.89588 8.76707C4.88142 8.75191 4.86994 8.7339 4.86212 8.71409C4.85429 8.69427 4.85026 8.67304 4.85026 8.6516C4.85026 8.60828 4.86667 8.56675 4.89588 8.53612C4.92508 8.50549 4.96469 8.48829 5.006 8.48829C5.02786 8.48845 5.04946 8.49344 5.06936 8.50293L5.68478 7.79904C5.63862 7.7619 5.5968 7.71918 5.56019 7.67177L4.74608 8.08285C4.74608 8.08961 4.74608 8.09524 4.74608 8.10199C4.74608 8.1456 4.72956 8.18742 4.70016 8.21826C4.67075 8.2491 4.63086 8.26643 4.58928 8.26643C4.54769 8.26643 4.50781 8.2491 4.4784 8.21826C4.44899 8.18742 4.43247 8.1456 4.43247 8.10199C4.43247 8.0804 4.43653 8.05902 4.44441 8.03907C4.45229 8.01912 4.46384 8.001 4.4784 7.98573C4.49296 7.97046 4.51025 7.95834 4.52927 7.95008C4.54829 7.94182 4.56869 7.93756 4.58928 7.93756C4.61037 7.93756 4.63124 7.94205 4.65062 7.95077C4.67001 7.95948 4.6875 7.97223 4.70205 7.98824L5.50005 7.58505C5.46532 7.52162 5.43929 7.45337 5.42272 7.38233L4.30896 7.34742C4.29872 7.37191 4.28188 7.39274 4.26051 7.40734C4.23914 7.42195 4.21417 7.4297 4.18867 7.42964C4.15392 7.42964 4.12059 7.41516 4.09602 7.38939C4.07144 7.36362 4.05764 7.32867 4.05764 7.29223C4.05764 7.25579 4.07144 7.22084 4.09602 7.19508C4.12059 7.16931 4.15392 7.15484 4.18867 7.15484C4.21528 7.15488 4.24125 7.16341 4.26312 7.1793C4.28499 7.19519 4.30173 7.21769 4.31111 7.24381L5.4066 7.27759C5.40551 7.25583 5.40551 7.23403 5.4066 7.21227C5.40655 7.1429 5.41595 7.07388 5.43453 7.0073L4.33581 6.47121C4.31823 6.49335 4.29622 6.51118 4.27136 6.52343C4.24649 6.53569 4.21937 6.54209 4.19189 6.54217C4.16712 6.54217 4.14259 6.53703 4.11972 6.52706C4.09684 6.51708 4.07607 6.50246 4.05861 6.48404C4.04114 6.46562 4.02732 6.44375 4.01794 6.41971C4.00855 6.39567 4.0038 6.36992 4.00394 6.34395C4.0038 6.31797 4.00855 6.29222 4.01794 6.26818C4.02732 6.24413 4.04114 6.22228 4.05861 6.20386C4.07607 6.18543 4.09684 6.17081 4.11972 6.16084C4.14259 6.15086 4.16712 6.14573 4.19189 6.14573C4.24202 6.14573 4.2901 6.16661 4.32555 6.20379C4.361 6.24096 4.38092 6.29138 4.38092 6.34395C4.38197 6.35518 4.38197 6.3665 4.38092 6.37773L5.47212 6.90931C5.51279 6.81539 5.57168 6.73139 5.64504 6.66267L4.80516 5.73578C4.76902 5.75817 4.72791 5.77021 4.68594 5.77069C4.6544 5.77084 4.62314 5.76445 4.59395 5.7519C4.56477 5.73934 4.53824 5.72087 4.51589 5.69753C4.49354 5.6742 4.4758 5.64646 4.46369 5.61592C4.45159 5.58537 4.44536 5.55262 4.44536 5.51955C4.44536 5.45264 4.47071 5.38847 4.51582 5.34116C4.56094 5.29385 4.62213 5.26727 4.68594 5.26727C4.71748 5.26727 4.74871 5.2738 4.77784 5.2865C4.80697 5.29919 4.83342 5.31779 4.85568 5.34123C4.87793 5.36467 4.89555 5.39249 4.90752 5.42309C4.9195 5.45369 4.92559 5.48647 4.92545 5.51955C4.92529 5.57226 4.90912 5.62354 4.87926 5.66595L5.72344 6.59848C5.81671 6.53241 5.92404 6.49141 6.03598 6.4791C6.04457 6.15249 6.05209 5.82588 6.06068 5.5004C6.01669 5.48803 5.97781 5.4608 5.95005 5.42294C5.92229 5.38507 5.90719 5.33868 5.9071 5.29092C5.9071 5.23346 5.92879 5.17835 5.96743 5.13762C6.00607 5.09689 6.05852 5.07385 6.11331 5.07355C6.16828 5.07355 6.22101 5.09646 6.25988 5.13722C6.29876 5.17798 6.32059 5.23327 6.32059 5.29092C6.32056 5.34012 6.3046 5.38785 6.27534 5.42631C6.24608 5.46477 6.20523 5.49169 6.15949 5.50265C6.15197 5.827 6.14338 6.15136 6.13586 6.47571C6.2395 6.47858 6.34119 6.50591 6.43337 6.55568L6.81894 5.87206C6.79207 5.84122 6.77681 5.80119 6.77598 5.75943C6.77598 5.71343 6.7934 5.66932 6.82442 5.63679C6.85544 5.60427 6.89751 5.58599 6.94138 5.58599C6.98524 5.58599 7.02731 5.60427 7.05833 5.63679C7.08935 5.66932 7.10678 5.71343 7.10678 5.75943C7.10692 5.7823 7.10274 5.80498 7.09449 5.82615C7.08625 5.84732 7.07408 5.86658 7.05871 5.8828C7.04334 5.89902 7.02506 5.9119 7.00492 5.92069C6.98478 5.92948 6.96319 5.934 6.94138 5.934C6.92935 5.93257 6.91748 5.92992 6.90593 5.92611C6.77705 6.15136 6.64781 6.37999 6.51821 6.61199C6.5824 6.6594 6.63865 6.71762 6.68469 6.7843L7.36239 6.12433C7.34777 6.09554 7.34003 6.06347 7.33984 6.03085C7.33969 6.00419 7.3446 5.97776 7.35426 5.9531C7.36393 5.92844 7.37816 5.90603 7.39614 5.88717C7.41412 5.86832 7.43549 5.8534 7.45901 5.84326C7.48253 5.83313 7.50773 5.82798 7.53316 5.82813C7.58443 5.82813 7.63361 5.84949 7.66986 5.88751C7.70612 5.92553 7.72648 5.97709 7.72648 6.03085C7.7262 6.08453 7.70574 6.13592 7.66955 6.17387C7.63335 6.21183 7.58435 6.23328 7.53316 6.23357C7.49506 6.23415 7.45765 6.22278 7.42576 6.20091L6.73302 6.8699C6.76018 6.92472 6.7804 6.98302 6.79316 7.04333L7.71467 6.90031C7.7203 6.8599 7.73953 6.82293 7.76888 6.79608C7.79822 6.76923 7.83575 6.75427 7.8747 6.7539C7.91856 6.7539 7.96063 6.77217 7.99165 6.8047C8.02267 6.83722 8.0401 6.88134 8.0401 6.92733C8.0401 6.97333 8.02267 7.01745 7.99165 7.04997C7.96063 7.0825 7.91856 7.10077 7.8747 7.10077C7.84372 7.10063 7.81341 7.09138 7.7872 7.07405C7.761 7.05673 7.73996 7.03204 7.72648 7.00279L6.80927 7.1447C6.80927 7.1661 6.80927 7.1875 6.80927 7.21002C6.80927 7.23254 6.80927 7.23367 6.80927 7.24606L7.71467 7.31476C7.72724 7.28136 7.74914 7.25274 7.77751 7.23264C7.80588 7.21254 7.83939 7.2019 7.87362 7.20214C7.91891 7.20214 7.96235 7.221 7.99438 7.25458C8.0264 7.28817 8.04439 7.33371 8.04439 7.3812C8.04386 7.42734 8.02636 7.4715 7.99555 7.50444C7.96473 7.53738 7.92298 7.55657 7.87899 7.55802V7.56028Z" fill="#D9524D"/>
</svg>
